<svg version="1.1" xmlns="http://www.w3.org/2000/svg">
<path d="M959.36,805.824C956.288,856.064,914.976,895.936,864,895.936C864,895.936,768,895.936,768,895.936C768,895.936,768,927.936,768,927.936C768,927.936,768,928,768,928C768,981.024,724.992,1024,672,1024C672,1024,352,1024,352,1024C298.976,1024,256,981.024,256,928C256,928,256,927.968,256,927.968C256,927.968,256,895.968,256,895.968C256,895.968,160,895.968,160,895.968C108.96,895.968,67.68,856.096,64.608,805.856C64.608,805.856,64,805.856,64,805.856C64,805.856,64,768,64,768C64,768,64,736,64,736C64,700.672,92.672,672,128,672C128,672,128,672,128,672C128,672,128,128,128,128C128,57.312,185.312,0,256,0C256,0,768,0,768,0C838.688,0,896,57.312,896,128C896,128,896,672,896,672C896,672,896,672,896,672C931.328,672,960,700.672,960,736C960,736,960,768,960,768C960,768,960,805.824,960,805.824C960,805.824,959.36,805.824,959.36,805.824C959.36,805.824,959.36,805.824,959.36,805.824M320,927.968C320,945.664,334.304,959.968,352,959.968C352,959.968,672,959.968,672,959.968C689.696,959.968,704,945.664,704,927.968C704,927.968,704,895.968,704,895.968C704,895.968,320,895.968,320,895.968C320,895.968,320,927.968,320,927.968C320,927.968,320,927.968,320,927.968M832,127.968C832,92.704,803.264,63.968,768,63.968C768,63.968,256,63.968,256,63.968C220.704,63.968,192,92.704,192,127.968C192,127.968,192,671.968,192,671.968C192,671.968,832,671.968,832,671.968C832,671.968,832,127.968,832,127.968C832,127.968,832,127.968,832,127.968M896,768C896,768,896,736,896,736C896,736,128,736,128,736C128,736,128,768,128,768C128,768,128,799.968,128,799.968C128,817.664,142.304,831.968,160,831.968C160,831.968,864,831.968,864,831.968C881.696,831.968,896,817.664,896,799.968C896,799.968,896,768,896,768C896,768,896,768,896,768M288,127.84C288,127.84,352,127.84,352,127.84C369.696,127.84,384,142.144,384,159.84C384,159.84,384,575.84,384,575.84C384,593.536,369.696,607.84,352,607.84C352,607.84,288,607.84,288,607.84C270.304,607.84,256,593.536,256,575.84C256,575.84,256,159.84,256,159.84C256,142.144,270.304,127.84,288,127.84C288,127.84,288,127.84,288,127.84M288,575.872C288,575.872,352,575.872,352,575.872C352,575.872,352,159.872,352,159.872C352,159.872,288,159.872,288,159.872C288,159.872,288,575.872,288,575.872C288,575.872,288,575.872,288,575.872M480,127.84C480,127.84,544,127.84,544,127.84C561.696,127.84,576,142.144,576,159.84C576,159.84,576,575.84,576,575.84C576,593.536,561.696,607.84,544,607.84C544,607.84,480,607.84,480,607.84C462.304,607.84,448,593.536,448,575.84C448,575.84,448,159.84,448,159.84C448,142.144,462.304,127.84,480,127.84C480,127.84,480,127.84,480,127.84M480,575.872C480,575.872,544,575.872,544,575.872C544,575.872,544,159.872,544,159.872C544,159.872,480,159.872,480,159.872C480,159.872,480,575.872,480,575.872C480,575.872,480,575.872,480,575.872M672,127.84C672,127.84,736,127.84,736,127.84C753.696,127.84,768,142.144,768,159.84C768,159.84,768,575.84,768,575.84C768,593.536,753.696,607.84,736,607.84C736,607.84,672,607.84,672,607.84C654.304,607.84,640,593.536,640,575.84C640,575.84,640,159.84,640,159.84C640,142.144,654.304,127.84,672,127.84C672,127.84,672,127.84,672,127.84M672,575.872C672,575.872,736,575.872,736,575.872C736,575.872,736,159.872,736,159.872C736,159.872,672,159.872,672,159.872C672,159.872,672,575.872,672,575.872C672,575.872,672,575.872,672,575.872"></path></svg>