<svg xmlns="http://www.w3.org/2000/svg" viewBox="0 -256 1800 1800" width="100" height="100"><path d="m666 1055q-60-92-137-273-22 45-37 72.5-15 27.5-40.5 63.5-25.5 36-51 56.5-25.5 20.5-63 35Q300 1024 256 1024H32q-14 0-23 9-9 9-9 23v192q0 14 9 23 9 9 23 9h224q250 0 410-225zM1792 256q0-14-9-23L1463-87q-9-9-23-9-13 0-22.5 9.5-9.5 9.5-9.5 22.5v192q-32 0-85-0.5-53-0.5-81-1-28-0.5-73 1-45 1.5-71 5-26 3.5-64 10.5-38 7-63 18.5-25 11.5-58 28.5-33 17-59 40-26 23-55 53.5-29 30.5-56 69.5 59 93 136 273 22-45 37-72.5 15-27.5 40.5-63.5 25.5-36 51-56.5 25.5-20.5 63-35Q1108 384 1152 384h256v192q0 14 9 23 9 9 23 9 12 0 24-10l319-319q9-9 9-23zm0 896q0-14-9-23L1463 809q-9-9-23-9-13 0-22.5 9.5-9.5 9.5-9.5 22.5v192h-256q-48 0-87-15-39-15-69-45Q966 934 945 902.5 924 871 900 825 868 763 822 654 793 588 772.5 543 752 498 718.5 438 685 378 654.5 338 624 298 580.5 255 537 212 490.5 186.5 444 161 384 144.5 324 128 256 128H32q-14 0-23 9-9 9-9 23v192q0 14 9 23 9 9 23 9h224q48 0 87 15 39 15 69 45 30 30 51 61.5 21 31.5 45 77.5 32 62 78 171 29 66 49.5 111 20.5 45 54 105 33.5 60 64 100 30.5 40 74 83 43.5 43 90 68.5 46.5 25.5 106.5 42 60 16.5 128 16.5h256v192q0 14 9 23 9 9 23 9 12 0 24-10l319-319q9-9 9-23z" fill="currentColor"/></svg>